<svg height="512pt" viewBox="0 -6 512 512" width="512pt" xmlns="http://www.w3.org/2000/svg"><path d="m499.304688 409.601562c0 29.914063-50.777344 81.242188-50.777344 81.242188s-50.773438-51.328125-50.773438-81.242188c0-29.917968 22.730469-54.164062 50.773438-54.164062 28.046875 0 50.777344 24.246094 50.777344 54.164062zm0 0" fill="#dd352e"/><path d="m431.601562 389.289062h33.851563v33.851563h-33.851563zm0 0" fill="#fff"/><path d="m110.015625 54.160156c0 29.917969-50.777344 81.246094-50.777344 81.246094s-50.777343-51.328125-50.777343-81.246094c0-29.914062 22.734374-54.160156 50.777343-54.160156 28.046875 0 50.777344 24.246094 50.777344 54.160156zm0 0" fill="#ebba16"/><path d="m42.3125 33.851562h33.851562v33.851563h-33.851562zm0 0" fill="#fff"/><path d="m397.753906 499.304688h-291.96875c-25.667968 0-46.546875-20.886719-46.546875-46.542969 0-25.660157 20.878907-46.546875 46.546875-46.546875h203.105469c16.335937 0 29.621094-13.285156 29.621094-29.621094 0-16.332031-13.285157-29.617188-29.621094-29.617188h-262.34375c-25.667969 0-46.546875-20.886718-46.546875-46.546874 0-25.660157 20.878906-46.546876 46.546875-46.546876h418.90625c16.335937 0 29.621094-13.285156 29.621094-29.617187 0-16.335937-13.285157-29.621094-29.621094-29.621094h-308.890625c-25.667969 0-46.546875-20.886719-46.546875-46.546875 0-25.65625 20.878906-46.542968 46.546875-46.542968h228.496094c16.332031 0 29.617187-13.289063 29.617187-29.621094 0-16.332032-13.285156-29.621094-29.617187-29.621094h-215.800782c-4.671874 0-8.464843-3.78125-8.464843-8.460938 0-4.679687 3.792969-8.464843 8.464843-8.464843h215.800782c25.667968 0 46.542968 20.886719 46.542968 46.546875s-20.875 46.546875-46.542968 46.546875h-228.496094c-16.332031 0-29.621094 13.285156-29.621094 29.617187 0 16.335938 13.289063 29.621094 29.621094 29.621094h308.890625c25.667969 0 46.546875 20.886719 46.546875 46.546875 0 25.65625-20.878906 46.542969-46.546875 46.542969h-418.90625c-16.335937 0-29.621094 13.289062-29.621094 29.621094 0 16.332031 13.285157 29.621093 29.621094 29.621093h262.34375c25.667969 0 46.546875 20.886719 46.546875 46.542969 0 25.660156-20.878906 46.546875-46.546875 46.546875h-203.105469c-16.332031 0-29.621094 13.285156-29.621094 29.621094 0 16.332031 13.289063 29.617187 29.621094 29.617187h291.96875c4.667969 0 8.460938 3.785156 8.460938 8.464844s-3.792969 8.460938-8.460938 8.460938zm0 0" fill="#61b872"/></svg>