<svg id="Capa_1" enable-background="new 0 0 512 512" height="512" viewBox="0 0 512 512" width="512" xmlns="http://www.w3.org/2000/svg"><path d="m360.998 362h30v30h-30z" fill="#76e2f8"/><path d="m420.998 362h91v30h-91z" fill="#596c76"/><path d="m360.998 422h30v30h-30z" fill="#ff637b"/><path d="m420.998 422h91v30h-91z" fill="#596c76"/><path d="m360.998 482h30v30h-30z" fill="#ffda2d"/><path d="m420.998 482h91v30h-91z" fill="#596c76"/><path d="m360.998 377h30v15h-30z" fill="#4bb9ec"/><path d="m420.998 377h91v15h-91z" fill="#465a61"/><path d="m360.998 437h30v15h-30z" fill="#e63950"/><path d="m420.998 437h91v15h-91z" fill="#465a61"/><path d="m360.998 497h30v15h-30z" fill="#fdbf00"/><path d="m420.998 497h91v15h-91z" fill="#465a61"/><path d="m511.999 197-121.001-89.815v45.397c-32.07 2.496-62.946 12.957-90 30.371l-13.5 44.231 13.5 119.816c0-52.805 39.183-96.631 90-103.932v43.746z" fill="#ffda2d"/><path d="m120.998 272.583v-45.398l-120.997 89.815 120.997 89.815v-43.747c50.817 7.301 90 51.127 90 103.932l15.5-102.5-15.5-61.546c-27.054-17.415-57.93-27.876-90-30.371z" fill="#76e2f8"/><path d="m347.208 114h-46.21v398h-90v-398h-46.21l91.21-114z" fill="#ff637b"/><path d="m347.208 114h-46.21v398h-45v-512z" fill="#e63950"/></svg>