<svg height="512" viewBox="0 0 512 512" width="512" xmlns="http://www.w3.org/2000/svg"><path d="m40 288.118v-76.118a48 48 0 0 1 48-48h28.118a48 48 0 0 0 33.941-14.059l83.882-83.882a48 48 0 0 1 33.941-14.059h72.236a48 48 0 0 1 33.941 14.059l83.882 83.882a48 48 0 0 1 14.059 33.941v136.236a48 48 0 0 1 -14.059 33.941l-35.882 35.882a48 48 0 0 1 -33.941 14.059h-232.236a48 48 0 0 1 -33.941-14.059l-67.882-67.882a48 48 0 0 1 -14.059-33.941z" fill="#5a5a73"/><g fill="#463c4b"><path d="m312 52a32 32 0 0 1 32 32v108.118a48 48 0 0 1 -14.059 33.941l-67.882 67.882a48 48 0 0 1 -33.941 14.059h-156.118a32 32 0 0 1 -32-32v12.118a48 48 0 0 0 14.059 33.941l67.882 67.882a48 48 0 0 0 33.941 14.059h232.236a48 48 0 0 0 33.941-14.059l35.882-35.882a48 48 0 0 0 14.059-33.941v-136.236a48 48 0 0 0 -14.059-33.941l-83.882-83.882a48 48 0 0 0 -33.941-14.059z"/><circle cx="280" cy="164" r="32"/><circle cx="168" cy="228" r="16"/></g><circle cx="360" cy="316" fill="#32283c" r="24"/><path d="m81.373 50.627-18.746 18.746a22.627 22.627 0 0 0 -6.627 16v22.627a24 24 0 0 0 24 24h16a24 24 0 0 0 24-24v-41.373a22.628 22.628 0 0 0 -22.627-22.627 22.627 22.627 0 0 0 -16 6.627z" fill="#5a5a73"/><path d="m120 76a32 32 0 0 1 -32 32h-32a24 24 0 0 0 24 24h16a24 24 0 0 0 24-24z" fill="#463c4b"/><circle cx="416" cy="444" fill="#463c4b" r="24"/></svg>