<?xml version="1.0" encoding="iso-8859-1"?>
<!-- Generator: Adobe Illustrator 19.0.0, SVG Export Plug-In . SVG Version: 6.00 Build 0)  -->
<svg version="1.1" id="Capa_1" xmlns="http://www.w3.org/2000/svg" xmlns:xlink="http://www.w3.org/1999/xlink" x="0px" y="0px"
	 viewBox="0 0 512 512" style="enable-background:new 0 0 512 512;" xml:space="preserve">
<path style="fill:#FEC761;" d="M502,250c0,5.52-2.24,10.52-5.86,14.14c-3.62,3.62-8.62,5.86-14.14,5.86h-3.55H33.55H30
	c-11.05,0-20-8.95-20-20c0-5.52,2.24-10.52,5.86-14.14S24.48,230,30,230h8.12h435.76H482C493.05,230,502,238.95,502,250z"/>
<g>
	<path style="fill:#AD7ACF;" d="M33.55,270h444.9c-4.97,45-46.12,80-92.45,80h-10H136h-10C79.67,350,38.52,315,33.55,270z"/>
	<path style="fill:#AD7ACF;" d="M473.88,230H38.12c12.36-34.96,48.69-60,87.88-60h260C425.19,170,461.52,195.04,473.88,230z"/>
</g>
<path style="fill:#8CD9F4;" d="M396,150v20h-10H126h-10v-20c0-77.32,62.68-140,140-140c38.66,0,73.66,15.67,99,41
	C380.33,76.34,396,111.34,396,150z"/>
<path style="fill:#57555C;" d="M376,350l20,43c-98.857,0-182.132,0-280,0l20-43H376z"/>
<path d="M376,300c-5.52,0-10,4.48-10,10s4.48,10,10,10s10-4.48,10-10S381.52,300,376,300z"/>
<path d="M316,300c-5.52,0-10,4.48-10,10s4.48,10,10,10s10-4.48,10-10S321.52,300,316,300z"/>
<path d="M276,40c-5.52,0-10,4.48-10,10s4.48,10,10,10s10-4.48,10-10S281.52,40,276,40z"/>
<path d="M256,300c-5.52,0-10,4.48-10,10s4.48,10,10,10c5.52,0,10-4.48,10-10S261.52,300,256,300z"/>
<path d="M196,300c-5.52,0-10,4.48-10,10s4.48,10,10,10s10-4.48,10-10S201.52,300,196,300z"/>
<path d="M136,300c-5.52,0-10,4.48-10,10s4.48,10,10,10s10-4.48,10-10S141.52,300,136,300z"/>
<path d="M512,250c0-16.542-13.458-30-30-30h-1.36c-13.222-29.745-41.778-51.623-74.64-58.054V150
	c0-40.063-15.601-77.731-43.931-106.072C333.731,15.601,296.063,0,256,0c-82.71,0-150,67.29-150,150v11.946
	C73.138,168.377,44.581,190.254,31.36,220H30c-8.01,0-15.543,3.121-21.211,8.79C3.121,234.458,0,241.99,0,250
	c0,14.82,10.804,27.156,24.948,29.566c9,43.978,48.888,77.747,95.445,80.276l-13.461,28.94c-1.44,3.098-1.201,6.715,0.636,9.595
	c1.836,2.88,5.016,4.623,8.431,4.623h50v36c0,5.522,4.477,10,10,10s10-4.478,10-10v-36h60v16c0,5.522,4.478,10,10,10s10-4.478,10-10
	v-16h60v36c0,5.522,4.478,10,10,10s10-4.478,10-10v-36h50c3.415,0,6.595-1.743,8.432-4.623c1.836-2.88,2.076-6.497,0.636-9.595
	l-13.461-28.94c46.556-2.529,86.443-36.295,95.444-80.272c6.089-1.028,11.702-3.901,16.16-8.359C508.879,265.543,512,258.01,512,250
	z M126,150c0-71.683,58.318-130,130-130c34.722,0,67.369,13.521,91.928,38.069C372.479,82.631,386,115.278,386,150v10H126V150z
	 M126,180h260c29.332,0,57.545,16.187,72.076,40H53.924C68.455,196.187,96.668,180,126,180z M131.68,383l10.698-23h227.244
	l10.698,23H131.68z M386,340H126c-37.891,0-71.174-25.584-80.416-60h420.832C457.174,314.416,423.891,340,386,340z M489.068,257.068
	c-1.891,1.891-4.4,2.932-7.068,2.932H30c-5.514,0-10-4.486-10-10c0-2.668,1.041-5.179,2.931-7.068C24.821,241.041,27.332,240,30,240
	h8.05c0.023,0,0.047,0.003,0.07,0.003c0.025,0,0.05-0.003,0.076-0.003h435.608c0.025,0,0.05,0.003,0.076,0.003
	c0.023,0,0.046-0.003,0.07-0.003H482c5.514,0,10,4.486,10,10C492,252.668,490.959,255.178,489.068,257.068z"/>
<path d="M314.918,57.144c-4.661-2.969-10.841-1.591-13.805,3.068c-2.965,4.659-1.592,10.84,3.068,13.805
	c20.59,13.102,35.173,34.234,40.01,57.979c0.965,4.738,5.133,8.006,9.788,8.006c0.661,0,1.334-0.066,2.007-0.203
	c5.412-1.103,8.905-6.383,7.803-11.795C357.875,98.971,340.063,73.143,314.918,57.144z"/>
<path d="M256,449c-5.522,0-10,4.478-10,10v43c0,5.522,4.478,10,10,10s10-4.478,10-10v-43C266,453.478,261.522,449,256,449z"/>
<path d="M336,469c-5.522,0-10,4.478-10,10v23c0,5.522,4.478,10,10,10s10-4.478,10-10v-23C346,473.478,341.522,469,336,469z"/>
<path d="M176,469c-5.523,0-10,4.478-10,10v23c0,5.522,4.477,10,10,10s10-4.478,10-10v-23C186,473.478,181.523,469,176,469z"/>
<g>
</g>
<g>
</g>
<g>
</g>
<g>
</g>
<g>
</g>
<g>
</g>
<g>
</g>
<g>
</g>
<g>
</g>
<g>
</g>
<g>
</g>
<g>
</g>
<g>
</g>
<g>
</g>
<g>
</g>
</svg>
